<?xml version="1.0" ?>
<!-- Uploaded to: SVG Repo, www.svgrepo.com, Generator: SVG Repo Mixer Tools -->
<svg width="800px" height="800px" viewBox="0 0 32 32" xmlns="http://www.w3.org/2000/svg">
<defs>
<style>.cls-1{fill:#536dfe;}.cls-2{fill:#4062ed;}.cls-3{fill:#8c9eff;}.cls-4{fill:#5f7cf9;}</style>
</defs>
<title/>
<g id="Mail">
<rect class="cls-1" height="20" rx="1" ry="1" width="28" x="2" y="6"/>
<path class="cls-2" d="M29,6H16V26H29a1,1,0,0,0,1-1V7A1,1,0,0,0,29,6Z"/>
<path class="cls-3" d="M30,6.73A1,1,0,0,0,29,6H3a1,1,0,0,0-1,.73,1,1,0,0,0,.44,1.12l13,8a1,1,0,0,0,1,0l13-8A1,1,0,0,0,30,6.73Z"/>
<path class="cls-4" d="M30,6.73A1,1,0,0,0,29,6H16V16a1,1,0,0,0,.52-.15l13-8A1,1,0,0,0,30,6.73Z"/>
</g>
</svg>