<?xml version="1.0" ?>
<!-- Uploaded to: SVG Repo, www.svgrepo.com, Generator: SVG Repo Mixer Tools -->
<svg width="800px" height="800px" viewBox="0 0 512 512" id="Layer_1" version="1.1" xml:space="preserve" xmlns="http://www.w3.org/2000/svg" xmlns:xlink="http://www.w3.org/1999/xlink">
<style type="text/css">
	.st0{fill:#6040EC;}
	.st1{fill:#0BDC49;}
</style>
<g>
<g>
<circle class="st1" cx="66.5" cy="94.3" r="12.5"/>
<path class="st1" d="M66.5,109.8c-8.5,0-15.5-6.9-15.5-15.5s6.9-15.5,15.5-15.5s15.5,6.9,15.5,15.5S75,109.8,66.5,109.8z     M66.5,84.8c-5.2,0-9.5,4.2-9.5,9.5s4.2,9.5,9.5,9.5s9.5-4.2,9.5-9.5S71.7,84.8,66.5,84.8z"/>
</g>
<g>
<path class="st0" d="M458,214.2H133.2c-6.6,0-12-5.4-12-12s5.4-12,12-12H458c6.6,0,12,5.4,12,12S464.6,214.2,458,214.2z"/>
</g>
<g>
<path class="st0" d="M458,106.3H133.4c-6.6,0-12-5.4-12-12s5.4-12,12-12H458c6.6,0,12,5.4,12,12S464.6,106.3,458,106.3z"/>
</g>
<g>
<path class="st0" d="M457.7,322H133.4c-6.6,0-12-5.4-12-12s5.4-12,12-12h324.3c6.6,0,12,5.4,12,12S464.4,322,457.7,322z"/>
</g>
<g>
<path class="st0" d="M455.5,429.7H130.6c-6.6,0-12-5.4-12-12s5.4-12,12-12h324.8c6.6,0,12,5.4,12,12S462.1,429.7,455.5,429.7z"/>
</g>
<g>
<circle class="st1" cx="66.5" cy="202.2" r="12.5"/>
<path class="st1" d="M66.5,217.6c-8.5,0-15.5-6.9-15.5-15.5s6.9-15.5,15.5-15.5s15.5,6.9,15.5,15.5S75,217.6,66.5,217.6z     M66.5,192.7c-5.2,0-9.5,4.2-9.5,9.5s4.2,9.5,9.5,9.5s9.5-4.2,9.5-9.5S71.7,192.7,66.5,192.7z"/>
</g>
<g>
<circle class="st1" cx="66.5" cy="310" r="12.5"/>
<path class="st1" d="M66.5,325.5c-8.5,0-15.5-6.9-15.5-15.5c0-8.5,6.9-15.5,15.5-15.5s15.5,6.9,15.5,15.5    C81.9,318.6,75,325.5,66.5,325.5z M66.5,300.6c-5.2,0-9.5,4.2-9.5,9.5s4.2,9.5,9.5,9.5s9.5-4.2,9.5-9.5S71.7,300.6,66.5,300.6z"/>
</g>
<g>
<circle class="st1" cx="66.5" cy="417.7" r="12.5"/>
<path class="st1" d="M66.5,433.2c-8.5,0-15.5-6.9-15.5-15.5s6.9-15.5,15.5-15.5s15.5,6.9,15.5,15.5S75,433.2,66.5,433.2z     M66.5,408.2c-5.2,0-9.5,4.2-9.5,9.5s4.2,9.5,9.5,9.5s9.5-4.2,9.5-9.5S71.7,408.2,66.5,408.2z"/>
</g>
</g>
</svg>