<?xml version="1.0" ?>
<!-- Uploaded to: SVG Repo, www.svgrepo.com, Generator: SVG Repo Mixer Tools -->
<svg width="800px" height="800px" viewBox="0 0 512 512" id="Layer_1" version="1.1" xml:space="preserve" xmlns="http://www.w3.org/2000/svg" xmlns:xlink="http://www.w3.org/1999/xlink">
<style type="text/css">
	.st0{fill:#6040EC;}
	.st1{fill:#0BDC49;}
</style>
<g>
<g>
<path class="st1" d="M296.4,200.4H54c-6.6,0-12-5.4-12-12s5.4-12,12-12h242.4c6.6,0,12,5.4,12,12S303,200.4,296.4,200.4z"/>
</g>
<g>
<g>
<path class="st0" d="M458,66H54c-6.6,0-12-5.4-12-12s5.4-12,12-12h404c6.6,0,12,5.4,12,12S464.6,66,458,66z"/>
</g>
<g>
<path class="st0" d="M458,334.9H54c-6.6,0-12-5.4-12-12s5.4-12,12-12h404c6.6,0,12,5.4,12,12S464.6,334.9,458,334.9z"/>
</g>
</g>
<g>
<path class="st1" d="M296.4,470H54c-6.6,0-12-5.4-12-12s5.4-12,12-12h242.4c6.6,0,12,5.4,12,12S303,470,296.4,470z"/>
</g>
</g>
</svg>