<?xml version="1.0" ?>
<!-- Uploaded to: SVG Repo, www.svgrepo.com, Generator: SVG Repo Mixer Tools -->
<svg width="800px" height="800px" viewBox="0 0 512 512" id="Layer_1" version="1.1" xml:space="preserve" xmlns="http://www.w3.org/2000/svg" xmlns:xlink="http://www.w3.org/1999/xlink">
<style type="text/css">
	.st0{fill:#6040EC;}
	.st1{fill:#0BDC49;}
</style>
<g>
<g>
<path class="st1" d="M466,200.5H62c-6.6,0-12-5.4-12-12s5.4-12,12-12h404c6.6,0,12,5.4,12,12S472.6,200.5,466,200.5z"/>
</g>
<g>
<path class="st0" d="M466,66.3H62.3c-6.6,0-12-5.4-12-12s5.4-12,12-12H466c6.6,0,12,5.4,12,12S472.6,66.3,466,66.3z"/>
</g>
<g>
<path class="st0" d="M465.7,334.8H62.3c-6.6,0-12-5.4-12-12s5.4-12,12-12h403.4c6.6,0,12,5.4,12,12S472.3,334.8,465.7,334.8z"/>
</g>
</g>
<g>
<g>
<path class="st1" d="M466,469.1H62c-6.6,0-12-5.4-12-12s5.4-12,12-12h404c6.6,0,12,5.4,12,12S472.6,469.1,466,469.1z"/>
</g>
</g>
</svg>