<?xml version="1.0" ?>
<!-- Uploaded to: SVG Repo, www.svgrepo.com, Generator: SVG Repo Mixer Tools -->
<svg width="800px" height="800px" viewBox="0 0 512 512" id="Layer_1" version="1.1" xml:space="preserve" xmlns="http://www.w3.org/2000/svg" xmlns:xlink="http://www.w3.org/1999/xlink">
<style type="text/css">
	.st0{fill:#6040EC;}
	.st1{fill:#0BDC49;}
</style>
<g>
<g>
<path class="st1" d="M457.9,200H215.5c-6.6,0-12-5.4-12-12s5.4-12,12-12h242.4c6.6,0,12,5.4,12,12S464.5,200,457.9,200z"/>
</g>
<g>
<g>
<path class="st0" d="M457.9,65.6h-404c-6.6,0-12-5.4-12-12s5.4-12,12-12h404c6.6,0,12,5.4,12,12S464.5,65.6,457.9,65.6z"/>
</g>
<g>
<path class="st0" d="M457.9,334.5h-404c-6.6,0-12-5.4-12-12s5.4-12,12-12h404c6.6,0,12,5.4,12,12S464.5,334.5,457.9,334.5z"/>
</g>
</g>
<g>
<path class="st1" d="M457.9,469.6H215.5c-6.6,0-12-5.4-12-12s5.4-12,12-12h242.4c6.6,0,12,5.4,12,12S464.5,469.6,457.9,469.6z"/>
</g>
</g>
</svg>